<?xml version="1.0" encoding="UTF-8" standalone="no"?><svg xmlns:dc="http://purl.org/dc/elements/1.1/" xmlns:cc="http://creativecommons.org/ns#" xmlns:rdf="http://www.w3.org/1999/02/22-rdf-syntax-ns#" xmlns:svg="http://www.w3.org/2000/svg" xmlns="http://www.w3.org/2000/svg" id="Question" version="1.1" viewBox="0 0 64 64" width="16" height="16"><defs id="defs2" /><metadata id="metadata5"><rdf:RDF><cc:Work rdf:about="Question"><dc:format>image/svg+xml</dc:format><dc:type rdf:resource="http://purl.org/dc/dcmitype/StillImage" /><dc:title></dc:title><cc:license rdf:resource="http://creativecommons.org/licenses/by-nc-sa/4.0/" /><dc:date>2018-12-04</dc:date><dc:creator><cc:Agent><dc:title>Rafael CHACON</dc:title></cc:Agent></dc:creator></cc:Work><cc:License rdf:about="http://creativecommons.org/licenses/by-nc-sa/4.0/"><cc:permits rdf:resource="http://creativecommons.org/ns#Reproduction" /><cc:permits rdf:resource="http://creativecommons.org/ns#Distribution" /><cc:requires rdf:resource="http://creativecommons.org/ns#Notice" /><cc:requires rdf:resource="http://creativecommons.org/ns#Attribution" /><cc:prohibits rdf:resource="http://creativecommons.org/ns#CommercialUse" /><cc:permits rdf:resource="http://creativecommons.org/ns#DerivativeWorks" /><cc:requires rdf:resource="http://creativecommons.org/ns#ShareAlike" /></cc:License></rdf:RDF></metadata><circle id="Circle1" cx="32" cy="32" r="32" style="fill:#0000ff" /><filter id="sh" width="150%" height="150%"><feOffset dx="3.23" dy="2" id="feOffset6" in="SourceAlpha" result="offOut" /><feGaussianBlur id="feGaussianBlur8" in="offOut" result="blurOut" stdDeviation="1" /><feBlend id="feBlend10" in="SourceGraphic" in2="blurOut" mode="normal" /></filter><g filter="url(#sh)" id="g12"><circle id="Circle2" cx="32" cy="52" r="4" style="fill:#ffffff" /><path d="M 16,23 C 16,15.5 24,8 32,8 40,8 48,15.5 48,23 48,28.5 45,31 41.25,33.125 38.5,34.7 36,36 36,38 V 40 C 36,42 34,44 32,44 30,44 28,42 28,40 V 36.5 C 28,34 30,31 32,30.125 36,28 40,26.5 40,23 40,19.5 36,16 32,16 28,16 24,19.5 24,23 24,25 22,27 20,27 17.809524,27 16,25 16,23 Z" id="path11" style="fill:#ffffff" /></g></svg>
